<svg width="50" height="51" viewBox="0 0 50 51" fill="none" xmlns="http://www.w3.org/2000/svg">
<rect x="0.5" y="1" width="49" height="49" rx="24.5" stroke="white" stroke-opacity="0.125"/>
<path fill-rule="evenodd" clip-rule="evenodd" d="M31 17.5H19C17.897 17.5 17 18.397 17 19.5V31.5C17 32.603 17.897 33.5 19 33.5H25V28H23V25.5H25V23.5C25 22.7044 25.3161 21.9413 25.8787 21.3787C26.4413 20.8161 27.2044 20.5 28 20.5H30V23H29C28.448 23 28 22.948 28 23.5V25.5H30.5L29.5 28H28V33.5H31C32.103 33.5 33 32.603 33 31.5V19.5C33 18.397 32.103 17.5 31 17.5Z" fill="white"/>
</svg>
