<svg width="50" height="51" viewBox="0 0 50 51" fill="none" xmlns="http://www.w3.org/2000/svg">
<rect x="0.5" y="1" width="49" height="49" rx="24.5" stroke="white" stroke-opacity="0.125"/>
<path d="M35.45 19.9286C35.175 18.9286 34.4875 18.2143 33.525 17.9286C31.875 17.5 24.8625 17.5 24.8625 17.5C24.8625 17.5 17.9875 17.5 16.2 17.9286C15.2375 18.2143 14.55 18.9286 14.275 19.9286C14 21.7857 14 25.5 14 25.5C14 25.5 14 29.2143 14.4125 31.0714C14.6875 32.0714 15.375 32.7857 16.3375 33.0714C17.9875 33.5 25 33.5 25 33.5C25 33.5 31.875 33.5 33.6625 33.0714C34.625 32.7857 35.3125 32.0714 35.5875 31.0714C36 29.2143 36 25.5 36 25.5C36 25.5 36 21.7857 35.45 19.9286ZM22.8 28.9286V22.0714L28.575 25.5L22.8 28.9286Z" fill="white"/>
</svg>
