<svg width="50" height="51" viewBox="0 0 50 51" fill="none" xmlns="http://www.w3.org/2000/svg">
<rect x="0.5" y="1" width="49" height="49" rx="24.5" stroke="white" stroke-opacity="0.125"/>
<path d="M25 18.9458C27.1205 18.9458 27.4096 18.9458 28.2771 18.9458C29.0482 18.9458 29.4337 19.1386 29.7229 19.2349C30.1084 19.4277 30.3976 19.5241 30.6867 19.8133C30.9759 20.1024 31.1687 20.3916 31.2651 20.7771C31.3614 21.0663 31.4578 21.4518 31.5542 22.2229C31.5542 23.0904 31.5542 23.2831 31.5542 25.5C31.5542 27.7169 31.5542 27.9096 31.5542 28.7771C31.5542 29.5482 31.3614 29.9337 31.2651 30.2229C31.0723 30.6084 30.9759 30.8976 30.6867 31.1867C30.3976 31.4759 30.1084 31.6687 29.7229 31.7651C29.4337 31.8614 29.0482 31.9578 28.2771 32.0542C27.4096 32.0542 27.2169 32.0542 25 32.0542C22.7831 32.0542 22.5904 32.0542 21.7229 32.0542C20.9518 32.0542 20.5663 31.8614 20.2771 31.7651C19.8916 31.5723 19.6024 31.4759 19.3133 31.1867C19.0241 30.8976 18.8313 30.6084 18.7349 30.2229C18.6386 29.9337 18.5422 29.5482 18.4458 28.7771C18.4458 27.9096 18.4458 27.7169 18.4458 25.5C18.4458 23.2831 18.4458 23.0904 18.4458 22.2229C18.4458 21.4518 18.6386 21.0663 18.7349 20.7771C18.9277 20.3916 19.0241 20.1024 19.3133 19.8133C19.6024 19.5241 19.8916 19.3313 20.2771 19.2349C20.5663 19.1386 20.9518 19.0422 21.7229 18.9458C22.5904 18.9458 22.8795 18.9458 25 18.9458ZM25 17.5C22.7831 17.5 22.5904 17.5 21.7229 17.5C20.8554 17.5 20.2771 17.6928 19.7952 17.8855C19.3133 18.0783 18.8313 18.3675 18.3494 18.8494C17.8675 19.3313 17.6747 19.7169 17.3855 20.2952C17.1928 20.7771 17.0964 21.3554 17 22.2229C17 23.0904 17 23.3795 17 25.5C17 27.7169 17 27.9096 17 28.7771C17 29.6446 17.1928 30.2229 17.3855 30.7048C17.5783 31.1867 17.8675 31.6687 18.3494 32.1506C18.8313 32.6325 19.2169 32.8253 19.7952 33.1145C20.2771 33.3072 20.8554 33.4036 21.7229 33.5C22.5904 33.5 22.8795 33.5 25 33.5C27.1205 33.5 27.4096 33.5 28.2771 33.5C29.1446 33.5 29.7229 33.3072 30.2048 33.1145C30.6867 32.9217 31.1687 32.6325 31.6506 32.1506C32.1325 31.6687 32.3253 31.2831 32.6145 30.7048C32.8072 30.2229 32.9036 29.6446 33 28.7771C33 27.9096 33 27.6205 33 25.5C33 23.3795 33 23.0904 33 22.2229C33 21.3554 32.8072 20.7771 32.6145 20.2952C32.4217 19.8133 32.1325 19.3313 31.6506 18.8494C31.1687 18.3675 30.7831 18.1747 30.2048 17.8855C29.7229 17.6928 29.1446 17.5964 28.2771 17.5C27.4096 17.5 27.2169 17.5 25 17.5Z" fill="white"/>
<path d="M25 21.3554C22.6867 21.3554 20.8554 23.1867 20.8554 25.5C20.8554 27.8133 22.6867 29.6446 25 29.6446C27.3133 29.6446 29.1446 27.8133 29.1446 25.5C29.1446 23.1867 27.3133 21.3554 25 21.3554ZM25 28.1988C23.5542 28.1988 22.3012 27.0422 22.3012 25.5C22.3012 24.0542 23.4578 22.8012 25 22.8012C26.4458 22.8012 27.6988 23.9578 27.6988 25.5C27.6988 26.9458 26.4458 28.1988 25 28.1988Z" fill="white"/>
<path d="M29.241 22.2229C29.7733 22.2229 30.2048 21.7914 30.2048 21.259C30.2048 20.7267 29.7733 20.2952 29.241 20.2952C28.7086 20.2952 28.2771 20.7267 28.2771 21.259C28.2771 21.7914 28.7086 22.2229 29.241 22.2229Z" fill="white"/>
</svg>
