<svg width="118" height="43" viewBox="0 0 118 43" fill="none" xmlns="http://www.w3.org/2000/svg">
<path d="M16.4219 34.432C14.1499 34.432 12.0219 34 10.0379 33.136C8.05394 32.24 6.30994 31.008 4.80594 29.44C3.30194 27.872 2.11794 26.064 1.25394 24.016C0.421938 21.936 0.00593764 19.728 0.00593764 17.392C0.00593764 15.056 0.421938 12.848 1.25394 10.768C2.08594 8.688 3.25394 6.848 4.75794 5.248C6.26194 3.616 8.00594 2.336 9.98994 1.408C11.9739 0.48 14.1179 0.0159998 16.4219 0.0159998C19.2379 0.0159998 21.8619 0.704 24.2939 2.08C26.7259 3.456 28.8379 5.536 30.6299 8.32L25.5419 11.632C24.3259 9.712 22.9339 8.32 21.3659 7.456C19.7979 6.56 18.1499 6.112 16.4219 6.112C14.4699 6.112 12.7099 6.624 11.1419 7.648C9.60594 8.672 8.37394 10.048 7.44594 11.776C6.54994 13.472 6.10194 15.344 6.10194 17.392C6.10194 18.8 6.37394 20.16 6.91794 21.472C7.46194 22.784 8.19794 23.968 9.12594 25.024C10.0859 26.048 11.1899 26.864 12.4379 27.472C13.6859 28.08 15.0139 28.384 16.4219 28.384C18.4699 28.384 20.1019 28.112 21.3179 27.568C22.5659 27.024 23.6219 26.096 24.4859 24.784V22.576H19.0619V16.912H30.5819V26.32C29.2059 29.168 27.3499 31.232 25.0139 32.512C22.6779 33.792 19.8139 34.432 16.4219 34.432ZM80.1288 6.256H67.7928V14.848H77.7768V20.176H67.7928V34H62.0328V0.399998H80.1288V6.256ZM90.1991 34H84.4391V0.399998H90.1991V34ZM98.2019 42.352V36.592C99.3859 36.624 100.394 36.432 101.226 36.016C102.058 35.632 102.682 34.832 103.098 33.616L94.5059 10H100.794L106.41 26.992L111.594 10H117.978L110.49 30.496C109.754 32.512 109.05 34.256 108.378 35.728C107.738 37.2 107.002 38.416 106.17 39.376C105.37 40.368 104.33 41.104 103.05 41.584C101.802 42.096 100.186 42.352 98.2019 42.352Z" fill="#04373b"/>
<path d="M46.0751 34.624C43.7711 34.624 41.7391 34.128 39.9791 33.136C38.2511 32.112 36.8911 30.704 35.8991 28.912C34.9391 27.088 34.4591 24.976 34.4591 22.576C34.4591 18.352 35.5151 15.168 37.6271 13.024C39.7711 10.848 42.5871 9.76 46.0751 9.76C48.3471 9.76 50.3471 10.24 52.0751 11.2C53.8351 12.16 55.2111 13.6 56.2031 15.52C57.1951 17.408 57.6911 19.76 57.6911 22.576C57.6911 24.976 57.1951 27.088 56.2031 28.912C55.2111 30.704 53.8351 32.112 52.0751 33.136C50.3471 34.128 48.3471 34.624 46.0751 34.624ZM46.0751 29.104C47.3871 29.104 48.4911 28.8 49.3871 28.192C50.3151 27.552 51.0031 26.736 51.4511 25.744C51.9311 24.752 52.1711 23.696 52.1711 22.576C52.1711 20.56 51.6431 18.848 50.5871 17.44C49.5631 16 48.0591 15.28 46.0751 15.28C44.1551 15.28 42.6511 15.968 41.5631 17.344C40.5071 18.72 39.9791 20.464 39.9791 22.576C39.9791 23.728 40.2191 24.8 40.6991 25.792C41.1791 26.784 41.8671 27.584 42.7631 28.192C43.6911 28.8 44.7951 29.104 46.0751 29.104Z" fill="#FFE769"/>
</svg>