<svg width="50" height="51" viewBox="0 0 50 51" fill="none" xmlns="http://www.w3.org/2000/svg">
<rect x="0.5" y="1" width="49" height="49" rx="24.5" stroke="white" stroke-opacity="0.125"/>
<path d="M34.5 19.3604C33.8452 19.8078 33.0764 20.0454 32.2907 20.0432C33.1308 19.5334 33.7597 18.7235 34.0581 17.7674C33.3618 18.3738 32.4843 18.7153 31.5727 18.7346C30.9716 18.1005 30.1871 17.6843 29.3369 17.5484C28.4867 17.4126 27.6167 17.5644 26.8574 17.9811C26.098 18.3978 25.4904 19.057 25.1256 19.8596C24.7609 20.6622 24.6586 21.5651 24.8343 22.4327C23.2874 22.3485 21.775 21.9302 20.3953 21.2049C19.0155 20.4796 17.7993 19.4635 16.8256 18.2226C16.3491 19.1107 16.2096 20.1494 16.4341 21.1374C16.6586 22.1254 17.2311 22.9924 18.0407 23.5705C17.4297 23.5794 16.8249 23.4431 16.2733 23.1723C16.2881 24.0887 16.6009 24.9735 17.1617 25.6852C17.7224 26.3969 18.4987 26.8943 19.3663 27.0979C18.7887 27.2532 18.1847 27.2727 17.5988 27.1548C17.8516 27.9666 18.3439 28.6771 19.0073 29.187C19.6706 29.6969 20.4719 29.9809 21.2994 29.9994C19.5517 31.0915 17.5441 31.6627 15.5 31.6493C17.212 32.8005 19.2005 33.4398 21.2442 33.496C23.288 33.5521 25.3068 33.0229 27.0759 31.9673C28.8449 30.9117 30.2949 29.371 31.2644 27.5169C32.2338 25.6628 32.6847 23.5679 32.5669 21.4655C33.2957 20.8515 33.9453 20.1441 34.5 19.3604Z" fill="white"/>
</svg>
